<svg width="512" height="512" viewBox="0 0 512 512" fill="none" xmlns="http://www.w3.org/2000/svg">
  <rect width="512" height="512" fill="#262626"/>
  <path d="M410 315C410 285 395 265 375 255L360 250L135 250C115 250 100 265 100 285V330C100 340 108 348 118 348H392C402 348 410 340 410 330V315Z" stroke="white" stroke-width="12" stroke-linejoin="round"/>
  <path d="M125 265H185V305H125V265Z" stroke="white" stroke-width="6" opacity="0.5"/>
  <path d="M205 265H265V305H205V265Z" stroke="white" stroke-width="6" opacity="0.5"/>
  <path d="M285 265H345V305H285V265Z" stroke="white" stroke-width="6" opacity="0.5"/>
  <circle cx="160" cy="348" r="22" fill="#262626" stroke="white" stroke-width="8"/>
  <circle cx="350" cy="348" r="22" fill="#262626" stroke="white" stroke-width="8"/>
  <rect x="405" y="300" width="12" height="25" rx="2" fill="white" opacity="0.8"/>
</svg>
